<svg width="132" height="148" viewBox="0 0 132 148" fill="none" xmlns="http://www.w3.org/2000/svg">
<path d="M127.25 65.5625C127.25 99.3899 99.8274 126.812 66 126.812C32.1725 126.812 4.75 99.3899 4.75 65.5625C4.75 31.735 32.1725 4.3125 66 4.3125C99.8274 4.3125 127.25 31.735 127.25 65.5625Z" fill="#4886FF" stroke="black" stroke-width="8"/>
<path d="M109.5 114.5H22.5L17.4895 137.231C15.6803 142.106 19.847 147.125 25.7132 147.125H106.305C112.172 147.125 116.283 142.106 114.529 137.231L109.5 114.5Z" fill="#161616"/>
<path d="M58.0522 25.3034C57.3997 25.0294 56.9103 24.4816 56.6384 23.8789L54.5722 19.003C54.1916 18.236 53.104 18.236 52.7234 19.003L50.6572 23.8789C50.3853 24.5364 49.8959 25.0294 49.2434 25.3034L46.6334 26.5087C45.8722 26.8922 45.8722 27.9879 46.6334 28.3714L49.2434 29.5767C49.8959 29.8506 50.3853 30.3985 50.6572 31.0011L52.7234 35.8771C53.104 36.6441 54.1916 36.6441 54.5722 35.8771L56.6384 31.0011C56.9103 30.3437 57.3997 29.8506 58.0522 29.5767L60.6622 28.3714C61.4234 27.9879 61.4234 26.8922 60.6622 26.5087L58.0522 25.3034Z" fill="#FCD53F"/>
<path d="M111.965 49.9844C111.095 49.6009 110.388 48.8339 110.007 47.9573L107.071 40.9995C106.528 39.9038 104.951 39.9038 104.407 40.9995L101.471 47.9573C101.09 48.8339 100.383 49.6009 99.5132 49.9844L95.8156 51.6828C94.7281 52.2306 94.7281 53.8194 95.8156 54.3673L99.5132 56.0656C100.383 56.4491 101.09 57.2161 101.471 58.0927L104.407 65.0505C104.951 66.1462 106.528 66.1462 107.071 65.0505L110.007 58.0927C110.388 57.2161 111.095 56.4491 111.965 56.0656L115.663 54.3673C116.75 53.8194 116.75 52.2306 115.663 51.6828L111.965 49.9844Z" fill="#FCD53F"/>
<path d="M49.2496 67.53C50.0039 69.4435 51.412 70.9849 53.2224 71.8354L60.7155 75.3966C62.9282 76.5659 62.9282 79.9145 60.7155 81.0839L53.2224 84.6451C51.4623 85.4956 50.0039 87.037 49.2496 88.9505L43.3155 103.674C42.2091 106.012 39.0409 106.012 37.9345 103.674L32.0004 88.9505C31.2461 87.037 29.838 85.4956 28.0276 84.6451L20.5345 81.0839C18.3218 79.9145 18.3218 76.5659 20.5345 75.3966L28.0276 71.8354C29.7877 70.9849 31.2461 69.4435 32.0004 67.53L37.9345 52.8068C39.0409 50.4681 42.2091 50.4681 43.3155 52.8068L49.2496 67.53Z" fill="#FCD53F"/>
</svg>
