<svg width="194" height="194" viewBox="0 0 194 194" fill="none" xmlns="http://www.w3.org/2000/svg">
<path d="M176.252 6.7213L151.502 25.855C150.859 19.1214 142.517 15.8815 137.503 20.8946L116.475 41.9179V41.7482C116.475 34.454 107.653 30.7341 102.436 35.9507L76.4597 61.922V61.7522C76.4597 54.4581 67.6378 50.7382 62.4202 55.9547L19.6474 98.7196C-1.21581 119.579 -1.21582 153.496 19.6475 174.356C40.5103 195.215 74.4328 195.215 95.2957 174.356L138.139 131.52C143.217 126.443 139.735 117.482 132.342 117.482H132.173L158.147 91.5122C163.225 86.4353 159.743 77.4735 152.35 77.4735H152.181L173.135 56.5228C178.018 51.641 174.986 43.1672 168.173 42.5231L187.234 17.8593C187.239 17.8535 187.244 17.8476 187.248 17.8417C192.893 10.6492 183.781 0.834566 176.263 6.7125C176.259 6.71543 176.256 6.71836 176.252 6.7213Z" fill="#D3D3D3" stroke="black" stroke-width="8"/>
<path d="M135 61.5625C135 63.53 133.419 65.125 131.469 65.125C129.518 65.125 127.938 63.53 127.938 61.5625C127.938 59.595 129.518 58 131.469 58C133.419 58 135 59.595 135 61.5625Z" fill="#E9FF41"/>
<path d="M92.625 136.375C92.625 156.05 76.8151 172 57.3125 172C37.8099 172 22 156.05 22 136.375C22 116.7 37.8099 100.75 57.3125 100.75C76.8151 100.75 92.625 116.7 92.625 136.375Z" fill="#E9FF41"/>
<path d="M89.0938 79.375C91.044 79.375 92.625 77.78 92.625 75.8125C92.625 73.845 91.044 72.25 89.0938 72.25C87.1435 72.25 85.5625 73.845 85.5625 75.8125C85.5625 77.78 87.1435 79.375 89.0938 79.375Z" fill="#E9FF41"/>
<path d="M106.75 125.688C106.75 127.655 105.169 129.25 103.219 129.25C101.268 129.25 99.6875 127.655 99.6875 125.688C99.6875 123.72 101.268 122.125 103.219 122.125C105.169 122.125 106.75 123.72 106.75 125.688Z" fill="#E9FF41"/>
<path d="M67.9062 93.625C69.8565 93.625 71.4375 92.03 71.4375 90.0625C71.4375 88.095 69.8565 86.5 67.9062 86.5C65.956 86.5 64.375 88.095 64.375 90.0625C64.375 92.03 65.956 93.625 67.9062 93.625Z" fill="#E9FF41"/>
<path d="M99.6161 100.75C99.6161 104.646 96.4858 107.804 92.6242 107.804C88.7627 107.804 85.6323 104.646 85.6323 100.75C85.6323 96.8544 88.7627 93.6963 92.6242 93.6963C96.4858 93.6963 99.6161 96.8544 99.6161 100.75Z" fill="#E9FF41"/>
<path d="M113.812 77.5938C116.738 77.5938 119.109 75.2013 119.109 72.25C119.109 69.2987 116.738 66.9062 113.812 66.9062C110.887 66.9062 108.516 69.2987 108.516 72.25C108.516 75.2013 110.887 77.5938 113.812 77.5938Z" fill="#E9FF41"/>
<path d="M119.109 93.625C119.109 96.5763 116.738 98.9688 113.812 98.9688C110.887 98.9688 108.516 96.5763 108.516 93.625C108.516 90.6737 110.887 88.2812 113.812 88.2812C116.738 88.2812 119.109 90.6737 119.109 93.625Z" fill="#E9FF41"/>
</svg>
