<svg width="142" height="189" viewBox="0 0 142 189" fill="none" xmlns="http://www.w3.org/2000/svg">
<path d="M4.62466 103.893L4.62502 103.891C7.45843 81.683 17.0823 62.1885 28.2977 46.3074C28.4416 46.9492 28.589 47.6195 28.7405 48.3096L28.7756 48.4695C29.3329 51.0093 29.9487 53.8156 30.5913 55.8295C30.8841 56.7472 31.3383 58.0324 32.0609 59.0139C32.3784 59.445 33.2862 60.5786 34.9239 60.9122C36.9824 61.3315 38.4697 60.2238 39.1573 59.4474L39.1739 59.4286L39.1903 59.4096C39.7192 58.7972 40.488 57.6223 41.2683 56.3918C42.1272 55.0374 43.2189 53.2595 44.4716 51.1855C46.9796 47.0336 50.1743 41.6272 53.525 35.9046C60.2258 24.4601 67.5794 11.7005 71.3782 5.05767C71.5041 4.84084 71.6929 4.72045 71.8791 4.68048C72.0488 4.64402 72.2091 4.67163 72.3729 4.79862L72.3934 4.81445L72.414 4.83002C79.8587 10.4464 96.1306 23.8528 110.511 43.2853C124.895 62.7228 137.203 87.9341 137.203 117.259C137.203 156.04 105.11 187.123 66.4703 184.816C27.001 182.46 -0.566422 144.352 4.62466 103.893Z" fill="#FF6723" stroke="black" stroke-width="8"/>
<path d="M121.031 134.145C121.031 161.322 97.3713 183.168 68.5919 182.181C37.5296 181.128 16.2218 152.701 20.7877 123.419C27.36 81.4371 70.4598 54.458 70.4598 54.458C70.4598 54.458 121.031 86.1091 121.031 134.145Z" fill="#FFB02E"/>
</svg>
