<svg width="202" height="202" viewBox="0 0 202 202" fill="none" xmlns="http://www.w3.org/2000/svg">
<rect x="4" y="4" width="193.5" height="193.5" rx="29" stroke="black" stroke-width="8"/>
<path d="M169.186 193.5H116.51L104.295 188.298L89.4927 193.5H32.3138C25.4449 193.5 19.25 190.666 14.8325 186.101L17.1652 165.933L8 116.195V32.3138C8 18.865 18.865 8 32.3138 8H104.166L150.535 22.2549L191.902 23.6123C192.935 26.3128 193.5 29.2461 193.5 32.3138V35.6904L183.543 58.3768L193.5 67.9873V169.186C193.5 182.635 182.635 193.5 169.186 193.5Z" fill="#321B41"/>
<path d="M169.186 8H104.062C84.1875 27.4113 70.6725 46.4913 58.8137 63.2525C42.98 85.7113 30.79 102.936 8 116.12V169.186C8 175.745 10.65 181.707 14.89 186.146C68.2212 164.615 90.945 132.616 112.94 101.479C132.02 74.4487 150.106 48.8763 191.844 23.635C188.332 14.4925 179.587 8 169.186 8ZM89.4215 193.5H116.584C131.159 131.755 159.58 94.0586 193.5 68.0223V35.5598C148.185 65.2398 107.442 110.886 89.4215 193.5ZM47.6837 31.1875C47.6837 33.0169 46.2006 34.5 44.3712 34.5C42.5417 34.5 41.0587 33.0169 41.0587 31.1875C41.0587 29.3581 42.5417 27.875 44.3712 27.875C46.2006 27.875 47.6837 29.3581 47.6837 31.1875ZM166.934 123.938C166.934 125.767 165.451 127.25 163.621 127.25C161.792 127.25 160.309 125.767 160.309 123.938C160.309 122.108 161.792 120.625 163.621 120.625C165.451 120.625 166.934 122.108 166.934 123.938ZM143.746 167C145.576 167 147.059 165.517 147.059 163.688C147.059 161.858 145.576 160.375 143.746 160.375C141.917 160.375 140.434 161.858 140.434 163.688C140.434 165.517 141.917 167 143.746 167ZM180.184 157.062C180.184 158.892 178.701 160.375 176.871 160.375C175.042 160.375 173.559 158.892 173.559 157.062C173.559 155.233 175.042 153.75 176.871 153.75C178.701 153.75 180.184 155.233 180.184 157.062ZM24.4962 67.625C26.3256 67.625 27.8087 66.1419 27.8087 64.3125C27.8087 62.4831 26.3256 61 24.4962 61C22.6667 61 21.1837 62.4831 21.1837 64.3125C21.1837 66.1419 22.6667 67.625 24.4962 67.625Z" fill="#0074BA"/>
<path d="M99.8204 52.968L97.3691 51.7755C97.0379 51.643 96.7729 51.378 96.6404 51.0468L95.4479 48.5955C94.8516 47.403 93.1954 47.403 92.6654 48.5955L91.6054 50.848C91.4729 51.1793 91.2079 51.4443 90.8766 51.5768L88.2929 52.8355C87.1666 53.4318 87.1666 55.088 88.2929 55.618L90.6779 56.7443C91.0091 56.8768 91.2741 57.1418 91.4066 57.473L92.6654 60.0568C93.2616 61.183 94.8516 61.183 95.4479 60.0568L96.6404 57.6055C96.7729 57.2743 97.0379 57.0093 97.3691 56.8768L99.8204 55.6843C101.013 55.1543 101.013 53.498 99.8204 52.968ZM66.2312 121.802L62.5212 120.013C62.0575 119.814 61.66 119.417 61.4612 118.953L59.7387 115.309C58.8775 113.587 56.36 113.587 55.565 115.309L53.975 118.754C53.7762 119.218 53.3787 119.616 52.915 119.814L49.0062 121.736C47.2837 122.597 47.2837 125.048 49.0062 125.909L52.5175 127.566C52.9812 127.764 53.3787 128.162 53.5775 128.626L55.4987 132.468C56.36 134.191 58.8112 134.191 59.6725 132.468L61.4612 128.758C61.66 128.294 62.0575 127.897 62.5212 127.698L66.2312 125.909C68.02 125.114 68.02 122.597 66.2312 121.802ZM137.119 111.401L139.57 112.593C140.763 113.123 140.763 114.779 139.57 115.309L137.119 116.502C136.788 116.634 136.523 116.899 136.39 117.231L135.198 119.682C134.602 120.808 133.012 120.808 132.415 119.682L131.157 117.098C131.024 116.767 130.759 116.502 130.428 116.369L128.043 115.243C126.917 114.713 126.917 113.057 128.043 112.461L130.627 111.202C130.958 111.069 131.223 110.804 131.355 110.473L132.415 108.221C132.945 107.028 134.602 107.028 135.198 108.221L136.39 110.672C136.523 111.003 136.788 111.268 137.119 111.401Z" fill="#FCD53F"/>
<path d="M143.745 38.5412L146.196 39.7337C147.389 40.2637 147.389 41.9199 146.196 42.4499L143.745 43.6424C143.414 43.7749 143.149 44.0399 143.016 44.3712L141.824 46.8224C141.228 47.9487 139.638 47.9487 139.041 46.8224L137.783 44.2387C137.65 43.9074 137.385 43.6424 137.054 43.5099L134.669 42.3837C133.543 41.8537 133.543 40.1974 134.669 39.6012L137.253 38.3424C137.584 38.2099 137.849 37.9449 137.981 37.6137L139.041 35.3612C139.571 34.1687 141.228 34.1687 141.824 35.3612L143.016 37.8124C143.149 38.1437 143.414 38.4087 143.745 38.5412ZM90.7452 104.791L93.1964 105.984C94.3889 106.514 94.3889 108.17 93.1964 108.7L90.7452 109.892C90.4139 110.025 90.1489 110.29 90.0164 110.621L88.8239 113.072C88.2277 114.199 86.6377 114.199 86.0414 113.072L84.7827 110.489C84.6502 110.157 84.3852 109.892 84.0539 109.76L81.6689 108.634C80.5427 108.104 80.5427 106.447 81.6689 105.851L84.2527 104.592C84.5839 104.46 84.8489 104.195 84.9814 103.864L86.0414 101.611C86.5714 100.419 88.2277 100.419 88.8239 101.611L90.0164 104.062C90.1489 104.394 90.4139 104.659 90.7452 104.791Z" fill="#26EAFC"/>
<path d="M117.242 74.2402C119.071 74.2402 120.554 72.7572 120.554 70.9277C120.554 69.0983 119.071 67.6152 117.242 67.6152C115.412 67.6152 113.929 69.0983 113.929 70.9277C113.929 72.7572 115.412 74.2402 117.242 74.2402ZM64.2417 87.4902C66.0711 87.4902 67.5542 86.0072 67.5542 84.1777C67.5542 82.3483 66.0711 80.8652 64.2417 80.8652C62.4123 80.8652 60.9292 82.3483 60.9292 84.1777C60.9292 86.0072 62.4123 87.4902 64.2417 87.4902ZM120.554 150.428C120.554 152.257 119.071 153.74 117.242 153.74C115.412 153.74 113.929 152.257 113.929 150.428C113.929 148.598 115.412 147.115 117.242 147.115C119.071 147.115 120.554 148.598 120.554 150.428Z" fill="#26EAFC"/>
<path fill-rule="evenodd" clip-rule="evenodd" d="M140.432 17.916C140.432 19.7455 138.949 21.2285 137.119 21.2285C135.29 21.2285 133.807 19.7455 133.807 17.916C133.807 16.0866 135.29 14.6035 137.119 14.6035C138.949 14.6035 140.432 16.0866 140.432 17.916ZM170.244 74.2285C172.074 74.2285 173.557 72.7455 173.557 70.916C173.557 69.0866 172.074 67.6035 170.244 67.6035C168.415 67.6035 166.932 69.0866 166.932 70.916C166.932 72.7455 168.415 74.2285 170.244 74.2285ZM31.1191 153.729C29.2897 153.729 27.8066 152.245 27.8066 150.416C27.8066 148.587 29.2897 147.104 31.1191 147.104C32.9486 147.104 34.4316 148.587 34.4316 150.416C34.4316 152.245 32.9486 153.729 31.1191 153.729Z" fill="#F4F4F4"/>
</svg>
