<svg width="339" height="339" viewBox="0 0 339 339" fill="none" xmlns="http://www.w3.org/2000/svg">
<path d="M338.625 169.314C338.625 256.694 272.432 328.614 187.453 337.666C181.493 338.301 175.441 326.533 169.312 326.533C75.8038 326.533 36.2812 262.823 36.2812 169.314C36.2812 75.8052 75.8038 24.1889 169.312 24.1889C174.853 24.1889 180.331 0.267525 185.735 0.787658C271.538 9.04622 338.625 81.3455 338.625 169.314Z" fill="#8D65C5"/>
<path d="M247.922 145.125C264.62 145.125 278.156 131.589 278.156 114.891C278.156 98.1926 264.62 84.6562 247.922 84.6562C231.224 84.6562 217.688 98.1926 217.688 114.891C217.688 131.589 231.224 145.125 247.922 145.125ZM276.725 300.198C298.207 282.548 315.268 259.711 325.992 233.603C320.632 231.149 314.671 229.781 308.391 229.781C285.013 229.781 266.062 248.732 266.062 272.109C266.062 282.888 270.091 292.725 276.725 300.198Z" fill="#6B438B"/>
<path d="M186.239 0.835494C180.672 0.282921 175.025 0 169.312 0C75.8038 0 0 75.8038 0 169.312C0 262.821 75.8038 338.625 169.312 338.625C175.024 338.625 180.67 338.342 186.237 337.79C234.967 297.868 266.062 237.221 266.062 169.312C266.062 160.211 265.504 151.241 264.42 142.434C251.193 137.019 241.875 124.019 241.875 108.843C241.875 100.344 244.798 92.5268 249.693 86.3428C235.857 52.808 213.886 23.486 186.239 0.835494Z" fill="#FCD53F"/>
<path d="M181.405 42.3281C181.405 52.3469 173.283 60.4687 163.264 60.4687C153.245 60.4687 145.124 52.3469 145.124 42.3281C145.124 32.3093 153.245 24.1875 163.264 24.1875C173.283 24.1875 181.405 32.3093 181.405 42.3281ZM205.592 235.828C205.592 252.526 192.056 266.062 175.358 266.062C158.66 266.062 145.124 252.526 145.124 235.828C145.124 219.13 158.66 205.594 175.358 205.594C192.056 205.594 205.592 219.13 205.592 235.828ZM133.03 126.984C133.03 103.607 114.079 84.6562 90.7016 84.6563C67.3245 84.6563 48.3735 103.607 48.3735 126.984C48.3735 150.362 67.3245 169.312 90.7016 169.312C114.079 169.312 133.03 150.362 133.03 126.984ZM248.995 84.675C248.638 84.6625 248.28 84.6562 247.92 84.6562C231.222 84.6562 217.686 98.1926 217.686 114.891C217.686 131.589 231.222 145.125 247.92 145.125C253.128 145.125 258.029 143.808 262.307 141.489C250.211 135.606 241.874 123.198 241.874 108.843C241.874 100.344 244.796 92.5268 249.691 86.3427C249.461 85.7857 249.229 85.2297 248.995 84.675ZM33.2578 270.109C50.2336 292.985 72.8421 311.431 99.0322 323.395C105.157 316.054 108.842 306.606 108.842 296.297C108.842 272.92 89.8914 253.969 66.5142 253.969C53.0247 253.969 41.009 260.279 33.2578 270.109Z" fill="#F9C23C"/>
</svg>
