<svg width="186" height="186" viewBox="0 0 186 186" fill="none" xmlns="http://www.w3.org/2000/svg">
<rect x="4" y="4" width="178" height="178" rx="29" fill="#574AA8" stroke="white" stroke-width="8"/>
<path d="M136.375 154.814C136.375 153.169 137.746 151.836 139.438 151.836C141.129 151.836 142.5 153.169 142.5 154.814C142.5 156.458 141.129 157.791 139.438 157.791C137.746 157.791 136.375 156.458 136.375 154.814ZM157.812 122.064C156.121 122.064 154.75 123.397 154.75 125.041C154.75 126.685 156.121 128.018 157.812 128.018C159.504 128.018 160.875 126.685 160.875 125.041C160.875 123.397 159.504 122.064 157.812 122.064ZM38.375 53.5865C38.375 51.9422 39.7461 50.6092 41.4375 50.6092C43.1289 50.6092 44.5 51.9422 44.5 53.5865C44.5 55.2308 43.1289 56.5637 41.4375 56.5637C39.7461 56.5637 38.375 55.2308 38.375 53.5865ZM44.5 29.7683C44.5 28.124 45.8711 26.791 47.5625 26.791C49.2539 26.791 50.625 28.124 50.625 29.7683C50.625 31.4126 49.2539 32.7456 47.5625 32.7456C45.8711 32.7456 44.5 31.4126 44.5 29.7683ZM163.937 38.7001C162.246 38.7001 160.875 40.0331 160.875 41.6774C160.875 43.3217 162.246 44.6546 163.937 44.6546C165.629 44.6546 167 43.3217 167 41.6774C167 40.0331 165.629 38.7001 163.937 38.7001ZM20 29.7683C20 28.124 21.3711 26.791 23.0625 26.791C24.7539 26.791 26.125 28.124 26.125 29.7683C26.125 31.4126 24.7539 32.7456 23.0625 32.7456C21.3711 32.7456 20 31.4126 20 29.7683Z" fill="#E1D8EC"/>
<path d="M8.00002 155.938C8.00002 168.026 18.0377 177.791 30.4623 177.791L73.5504 177.791L135 120.627L71.4082 46.791L8.00002 108.48L8.00002 155.938Z" fill="#BFB76E"/>
<path d="M123.925 119.388L111.197 108.173C108.811 106.074 105.567 105.294 102.447 106.074L85.802 110.212C78.2752 112.071 71.7275 104.874 74.5424 97.7374L81.2125 80.8248C82.3139 78.066 82.008 74.9474 80.3557 72.4285L70.5036 57.1351C66.2201 50.538 71.6663 42.0217 79.5602 42.8614L95.7765 44.5406C99.0197 44.9005 102.263 43.5211 104.282 41.0022L114.318 28.4077C119.214 22.2304 129.188 24.3295 131.085 31.9461L135.491 49.5185C136.225 52.3972 138.306 54.7962 141.06 55.9357L158.133 62.9526C165.292 65.8913 166.088 75.5471 159.479 79.5653L144.853 88.4415C142.161 90.0608 140.448 92.9395 140.325 96.0581L139.713 112.791C139.53 120.707 129.984 124.666 123.925 119.388Z" fill="#FFF06B"/>
</svg>
