<svg width="184" height="184" viewBox="0 0 184 184" fill="none" xmlns="http://www.w3.org/2000/svg">
<path d="M24.2653 172.078L27.0938 174.907L29.9222 172.078L129.922 72.0784L132.751 69.25L129.922 66.4216L117.422 53.9216L114.594 51.0931L111.765 53.9216L11.7653 153.922L8.9369 156.75L11.7653 159.578L24.2653 172.078Z" fill="#433B6B" stroke="black" stroke-width="8"/>
<path d="M38.9927 163.035L36.1762 165.859L25.9387 176.126C21.6206 180.614 14.4852 180.609 10.1692 176.203L7.62073 173.647M38.9927 163.035L7.62073 173.647M38.9927 163.035L36.1761 160.21L23.6761 147.675L20.878 144.869L18.0459 147.641L7.6553 157.81L7.63791 157.827L7.62074 157.845C3.25142 162.226 3.25142 169.265 7.62073 173.647M38.9927 163.035L10.4531 170.822L7.62073 173.647M105.515 60.1713L102.687 62.9997L105.515 65.8281L118.015 78.3281L120.838 81.1507L123.666 78.334L134.13 67.9136L134.15 67.8939L134.169 67.8738C138.385 63.5557 138.429 56.0868 134.139 51.787L134.139 51.787L132.073 49.716L132.058 49.7008L132.042 49.6857C129.555 47.2453 126.129 46.6102 123.202 46.9113C120.236 47.2164 117.166 48.521 114.89 50.796L114.89 50.7961L105.515 60.1713Z" fill="#F4F4F4" stroke="black" stroke-width="8"/>
<path d="M170.037 15.6464C170.853 17.4158 172.234 18.8191 174.054 19.6122L181.649 22.9069C183.909 23.9442 183.909 27.0558 181.649 28.093L174.117 31.3877C172.296 32.1809 170.853 33.5842 170.1 35.3536L164.136 48.8984C163.069 51.0339 159.868 51.0339 158.801 48.8984L152.838 35.3536C152.022 33.5842 150.641 32.1809 148.821 31.3877L141.289 28.093C139.029 27.0558 139.029 23.9442 141.289 22.9069L148.821 19.6122C150.641 18.8191 152.085 17.4158 152.838 15.6464L158.801 2.10159C159.868 -0.0338622 163.069 -0.0338622 164.136 2.10159L170.037 15.6464ZM98.6013 23.0166C97.3006 22.469 96.325 21.4956 95.7397 20.2788L91.5123 10.9701C90.7319 9.50996 88.4557 9.50996 87.6752 10.9701L83.4478 20.2788C82.9275 21.4956 81.8869 22.469 80.5862 23.0166L75.1882 25.2677C73.5623 25.9978 73.5623 28.1272 75.1882 28.8573L80.5862 31.1084C81.8869 31.656 82.8625 32.6294 83.4478 33.8462L87.6752 43.1549C88.4557 44.615 90.7319 44.615 91.5123 43.1549L95.7397 33.8462C96.26 32.6294 97.3006 31.656 98.6013 31.1084L103.999 28.8573C105.625 28.1272 105.625 25.9978 103.999 25.2677L98.6013 23.0166ZM158.036 89.8603C156.764 89.2477 155.761 88.2268 155.159 86.8657L150.876 76.725C150.073 75.0917 147.798 75.0917 147.062 76.725L142.779 86.8657C142.244 88.1588 141.173 89.2477 139.902 89.8603L134.548 92.3103C132.942 93.127 132.942 95.441 134.548 96.1897L139.902 98.6397C141.173 99.2523 142.177 100.273 142.779 101.634L147.062 111.775C147.865 113.408 150.14 113.408 150.876 111.775L155.159 101.634C155.694 100.341 156.764 99.2523 158.036 98.6397L163.389 96.1897C164.995 95.373 164.995 93.059 163.389 92.3103L158.036 89.8603ZM70.8438 75.5C74.2956 75.5 77.0938 72.7018 77.0938 69.25C77.0938 65.7982 74.2956 63 70.8438 63C67.392 63 64.5938 65.7982 64.5938 69.25C64.5938 72.7018 67.392 75.5 70.8438 75.5ZM183.344 69.25C183.344 72.7018 180.546 75.5 177.094 75.5C173.642 75.5 170.844 72.7018 170.844 69.25C170.844 65.7982 173.642 63 177.094 63C180.546 63 183.344 65.7982 183.344 69.25ZM114.594 13C118.046 13 120.844 10.2018 120.844 6.75C120.844 3.29822 118.046 0.5 114.594 0.5C111.142 0.5 108.344 3.29822 108.344 6.75C108.344 10.2018 111.142 13 114.594 13ZM120.844 119.25C120.844 122.702 118.046 125.5 114.594 125.5C111.142 125.5 108.344 122.702 108.344 119.25C108.344 115.798 111.142 113 114.594 113C118.046 113 120.844 115.798 120.844 119.25Z" fill="#F9C23C"/>
</svg>
